<?xml version="1.0" standalone="no"?>
<!DOCTYPE svg PUBLIC "-//W3C//DTD SVG 20010904//EN"
 "http://www.w3.org/TR/2001/REC-SVG-20010904/DTD/svg10.dtd">
<svg version="1.0" xmlns="http://www.w3.org/2000/svg"
 width="512.000000pt" height="512.000000pt" viewBox="0 0 512.000000 512.000000"
 preserveAspectRatio="xMidYMid meet">

<g transform="translate(0.000000,512.000000) scale(0.100000,-0.100000)"
fill="#000000" stroke="none">
<path d="M2680 4523 c-470 -83 -831 -464 -889 -938 -6 -49 -11 -152 -11 -228
l0 -138 33 25 c45 34 100 55 163 62 52 7 54 8 60 43 10 56 32 90 67 106 18 8
298 85 622 172 666 176 677 178 778 128 75 -37 149 -117 176 -190 16 -43 21
-79 21 -154 l0 -98 61 -6 c37 -3 82 -16 117 -34 31 -15 60 -29 64 -31 14 -6 9
312 -7 399 -80 459 -445 812 -918 889 -87 14 -237 11 -337 -7z"/>
<path d="M770 3209 c0 -45 6 -100 12 -123 18 -58 91 -131 148 -146 42 -11 143
-10 155 2 3 3 -17 27 -44 54 -58 58 -71 97 -71 212 l0 82 -100 0 -100 0 0 -81z"/>
<path d="M1780 2583 c0 -265 34 -368 155 -482 l63 -58 -50 -11 c-135 -32 -263
-133 -323 -256 -19 -39 -37 -88 -41 -108 l-6 -38 300 0 299 0 7 42 c10 64 72
172 134 233 l55 55 121 0 121 0 -3 112 c-4 193 1 176 -65 203 -32 13 -84 38
-115 57 -78 45 -229 198 -272 275 l-35 62 -81 1 c-91 0 -164 18 -218 55 -20
14 -39 25 -41 25 -3 0 -5 -75 -5 -167z"/>
<path d="M3880 2705 c-49 -26 -66 -30 -160 -33 l-106 -4 -23 -42 c-36 -62
-103 -146 -155 -194 -59 -54 -172 -127 -239 -154 -29 -12 -55 -24 -59 -27 -3
-3 -8 -70 -10 -149 l-3 -142 190 0 c205 0 291 12 366 51 24 12 46 24 49 28 3
3 26 23 52 43 61 50 123 145 145 222 15 52 17 89 13 246 l-5 185 -55 -30z"/>
<path d="M3866 1499 l-26 -20 0 -443 c0 -483 2 -502 60 -621 32 -67 122 -172
174 -204 32 -20 48 -21 321 -21 l288 0 53 41 c87 67 151 162 190 279 16 49 18
104 22 507 4 547 22 493 -163 493 l-124 0 -3 -454 -3 -453 -34 -50 c-19 -28
-56 -65 -83 -84 -42 -28 -61 -34 -119 -37 -115 -7 -199 38 -257 137 l-27 46
-3 453 -3 452 -118 0 c-105 0 -121 -2 -145 -21z"/>
</g>
</svg>
